{"title":"The Sorcerers Apprentice TS H264.FEEL-FREE","uid":5700457,"size":681752444,"categoryP":"video","categoryS":"movies","magnet":"?xt=urn:btih:c1c4dc566b399812683a812979b7ccf0633eae7a&amp;dn=The+Sorcerers+Apprentice+TS+H264.FEEL-FREE&amp;tr=udp%3A%2F%2Ftracker.openbittorrent.com%3A80&amp;tr=udp%3A%2F%2Fopen.demonii.com%3A1337&amp;tr=udp%3A%2F%2Ftracker.coppersurfer.tk%3A6969&amp;tr=udp%3A%2F%2Fexodus.desync.com%3A6969","seeders":1,"leechers":0,"uploader":"neon","files":7,"time":1279485247,"description":"Genre:Action | Adventure | Comedy | Drama | Fantasy\nLanguage:English\nIMDb:http://www.imdb.com/title/tt0963966/\nSource Video:RelizLab.Thanks\nSource Audio:IMAGiNE.Thanks\nEncoder: Tony2\n.............................................\nGeneral\nComplete name : The Sorcerers Apprentice TS H264.FEEL-FREE\nFormat : MPEG-4\nFormat profile : Base Media\nCodec ID : isom\nFile size : 649 MiB\nDuration : 1h 38mn\nOverall bit rate : 922 Kbps\n.............................................\n\nVideo\nID : 1\nFormat : AVC\nFormat/Info : Advanced Video Codec\nFormat profile : &lt;a class=&quot;__cf_email__&quot; href=&quot;/cdn-cgi/l/email-protection&quot; data-cfemail=&quot;2964484047696518071a&quot;&gt;[email&amp;#160;protected]&lt;/a&gt;&lt;script cf-hash='f9e31' type=&quot;text/javascript&quot;&gt;\n/* &lt;![CDATA[ */!function(){try{var t=&quot;currentScript&quot;in document?document.currentScript:function(){for(var t=document.getElementsByTagName(&quot;script&quot;),e=t.length;e--;)if(t[e].getAttribute(&quot;cf-hash&quot;))return t[e]}();if(t&amp;&amp;t.previousSibling){var e,r,n,i,c=t.previousSibling,a=c.getAttribute(&quot;data-cfemail&quot;);if(a){for(e=&quot;&quot;,r=parseInt(a.substr(0,2),16),n=2;a.length-n;n+=2)i=parseInt(a.substr(n,2),16)^r,e+=String.fromCharCode(i);e=document.createTextNode(e),c.parentNode.replaceChild(e,c)}}}catch(u){}}();/* ]]&gt; */&lt;/script&gt;\nFormat settings, CABAC : Yes\nFormat settings, ReFrames : 1 frame\nCodec ID : avc1\nCodec ID/Info : Advanced Video Coding\nDuration : 1h 38mn\nBit rate mode : Variable\nBit rate : 766 Kbps\nWidth : 644 pixels\nHeight : 302 pixels\nDisplay aspect ratio : 2.2:1\nFrame rate mode : Constant\nFrame rate : 29.970 fps\nResolution : 24 bits\nColorimetry : 4:2:0\nScan type : Progressive\nBits/(Pixel*Frame) : 0.131\nStream size : 539 MiB (83%)\n.............................................\nAudio\nID : 2\nFormat : AAC\nFormat/Info : Advanced Audio Codec\nFormat version : Version 4\nFormat profile : LC\nFormat settings, SBR : No\nCodec ID : 40\nDuration : 1h 38mn\nBit rate mode : Variable\nBit rate : 152 Kbps\nChannel(s) : 2 channels\nChannel positions : L R\nSampling rate : 44.1 KHz\nResolution : 16 bits\nStream size : 107 MiB (16%)\n..............................................\nPlot:\nMaster sorcerer Balthazar Blake recruits a seemingly everyday guy in his mission to defend New York City from his arch-nemesis, Maxim Horvath","torrent":{"xt":"urn:btih:c1c4dc566b399812683a812979b7ccf0633eae7a","amp;dn":"The+Sorcerers+Apprentice+TS+H264.FEEL-FREE","amp;tr":["udp%3A%2F%2Ftracker.openbittorrent.com%3A80","udp%3A%2F%2Fopen.demonii.com%3A1337","udp%3A%2F%2Ftracker.coppersurfer.tk%3A6969","udp%3A%2F%2Fexodus.desync.com%3A6969"],"infoHash":"c1c4dc566b399812683a812979b7ccf0633eae7a","infoHashBuffer":{"type":"Buffer","data":[193,196,220,86,107,57,152,18,104,58,129,41,121,183,204,240,99,62,174,122]},"announce":[],"urlList":[]}}